<svg xmlns="http://www.w3.org/2000/svg" xmlns:xlink="http://www.w3.org/1999/xlink" version="1.1" width="256" height="256" viewBox="0 0 256 256" xml:space="preserve">

<defs>
</defs>
<g style="stroke: none; stroke-width: 0; stroke-dasharray: none; stroke-linecap: butt; stroke-linejoin: miter; stroke-miterlimit: 10; fill: none; fill-rule: nonzero; opacity: 1;" transform="translate(1.4065934065934016 1.4065934065934016) scale(2.81 2.81)" >
	<path d="M 60.288 22.648 H 29.712 c -5.099 0 -10.143 1.062 -14.809 3.118 L 2.317 32.393 l 4.346 14.563 l 15.317 -3.068 V 89 H 68.02 V 43.889 l 15.317 3.068 l 4.346 -14.563 l -12.586 -6.627 C 70.43 23.71 65.387 22.648 60.288 22.648 z" style="stroke: none; stroke-width: 1; stroke-dasharray: none; stroke-linecap: butt; stroke-linejoin: miter; stroke-miterlimit: 10; fill: rgb(255,224,125); fill-rule: nonzero; opacity: 1;" transform=" matrix(1 0 0 1 0 0) " stroke-linecap="round" />
	<path d="M 51.78 32.806 l 7.571 -10.158 H 30.649 l 7.571 10.158 C 41.602 37.343 48.398 37.343 51.78 32.806 z" style="stroke: none; stroke-width: 1; stroke-dasharray: none; stroke-linecap: butt; stroke-linejoin: miter; stroke-miterlimit: 10; fill: rgb(234,212,117); fill-rule: nonzero; opacity: 1;" transform=" matrix(1 0 0 1 0 0) " stroke-linecap="round" />
	<path d="M 68.021 90 H 21.979 c -0.552 0 -1 -0.447 -1 -1 V 45.109 l -14.12 2.828 c -0.508 0.103 -1.007 -0.199 -1.154 -0.694 L 1.359 32.679 c -0.137 -0.458 0.069 -0.948 0.492 -1.171 l 12.586 -6.626 c 4.885 -2.156 10.003 -3.233 15.275 -3.233 h 30.576 c 5.271 0 10.39 1.078 15.212 3.203 l 12.648 6.657 c 0.423 0.223 0.629 0.713 0.492 1.171 l -4.346 14.564 c -0.147 0.495 -0.649 0.797 -1.154 0.694 l -14.12 -2.828 V 89 C 69.021 89.553 68.573 90 68.021 90 z M 22.979 88 h 44.041 V 43.889 c 0 -0.3 0.135 -0.583 0.366 -0.773 c 0.232 -0.19 0.535 -0.267 0.83 -0.207 l 14.423 2.889 l 3.85 -12.902 l -11.858 -6.244 c -4.504 -1.982 -9.351 -3.003 -14.343 -3.003 H 29.712 c -4.992 0 -9.839 1.021 -14.406 3.033 L 3.511 32.895 l 3.85 12.902 l 14.422 -2.889 c 0.292 -0.06 0.598 0.017 0.83 0.207 c 0.232 0.19 0.366 0.474 0.366 0.773 V 88 z" style="stroke: none; stroke-width: 1; stroke-dasharray: none; stroke-linecap: butt; stroke-linejoin: miter; stroke-miterlimit: 10; fill: rgb(0,0,0); fill-rule: nonzero; opacity: 1;" transform=" matrix(1 0 0 1 0 0) " stroke-linecap="round" />
	<path d="M 45 37.208 c -3.016 0 -5.779 -1.387 -7.582 -3.805 l -7.571 -10.158 c -0.226 -0.303 -0.262 -0.708 -0.092 -1.046 c 0.169 -0.338 0.515 -0.551 0.894 -0.551 h 28.701 c 0.378 0 0.724 0.213 0.894 0.551 c 0.17 0.338 0.134 0.743 -0.092 1.046 l -7.571 10.158 C 50.779 35.822 48.017 37.208 45 37.208 z M 32.642 23.648 l 6.38 8.56 c 1.421 1.907 3.6 3 5.978 3 c 2.377 0 4.556 -1.093 5.977 -3 l 0 0 l 6.381 -8.56 H 32.642 z" style="stroke: none; stroke-width: 1; stroke-dasharray: none; stroke-linecap: butt; stroke-linejoin: miter; stroke-miterlimit: 10; fill: rgb(0,0,0); fill-rule: nonzero; opacity: 1;" transform=" matrix(1 0 0 1 0 0) " stroke-linecap="round" />
	<path d="M 59.351 23.648 c -0.23 0 -0.461 -0.079 -0.649 -0.24 l -5.351 -4.569 c -4.839 -4.131 -11.863 -4.13 -16.701 0 l -5.351 4.568 c -0.421 0.359 -1.052 0.308 -1.41 -0.111 c -0.359 -0.42 -0.309 -1.051 0.111 -1.41 l 5.351 -4.569 c 5.592 -4.774 13.707 -4.774 19.299 0 L 60 21.888 c 0.42 0.358 0.47 0.99 0.111 1.41 C 59.913 23.529 59.633 23.648 59.351 23.648 z" style="stroke: none; stroke-width: 1; stroke-dasharray: none; stroke-linecap: butt; stroke-linejoin: miter; stroke-miterlimit: 10; fill: rgb(0,0,0); fill-rule: nonzero; opacity: 1;" transform=" matrix(1 0 0 1 0 0) " stroke-linecap="round" />
	<path d="M 45 11.548 c -0.552 0 -1 -0.448 -1 -1 s 0.448 -1 1 -1 c 2.081 0 3.774 -1.693 3.774 -3.774 S 47.081 2 45 2 s -3.774 1.693 -3.774 3.774 c 0 0.552 -0.448 1 -1 1 s -1 -0.448 -1 -1 C 39.226 2.59 41.816 0 45 0 s 5.774 2.59 5.774 5.774 C 50.774 8.958 48.184 11.548 45 11.548 z" style="stroke: none; stroke-width: 1; stroke-dasharray: none; stroke-linecap: butt; stroke-linejoin: miter; stroke-miterlimit: 10; fill: rgb(0,0,0); fill-rule: nonzero; opacity: 1;" transform=" matrix(1 0 0 1 0 0) " stroke-linecap="round" />
	<path d="M 45 15.76 c -0.552 0 -1 -0.448 -1 -1 v -4.212 c 0 -0.552 0.448 -1 1 -1 s 1 0.448 1 1 v 4.212 C 46 15.313 45.552 15.76 45 15.76 z" style="stroke: none; stroke-width: 1; stroke-dasharray: none; stroke-linecap: butt; stroke-linejoin: miter; stroke-miterlimit: 10; fill: rgb(0,0,0); fill-rule: nonzero; opacity: 1;" transform=" matrix(1 0 0 1 0 0) " stroke-linecap="round" />
	<path d="M 41.933 74.226 c 2.131 -2.131 4.505 -3.575 6.559 -4.159 c -2.054 -0.584 -4.429 -2.028 -6.559 -4.159 c -2.131 -2.131 -3.575 -4.505 -4.159 -6.559 c -0.584 2.054 -2.028 4.429 -4.159 6.559 c -2.131 2.131 -4.505 3.575 -6.559 4.159 c 2.054 0.584 4.429 2.028 6.559 4.159 c 2.131 2.131 3.575 4.505 4.159 6.559 C 38.359 78.731 39.802 76.357 41.933 74.226 z" style="stroke: none; stroke-width: 1; stroke-dasharray: none; stroke-linecap: butt; stroke-linejoin: miter; stroke-miterlimit: 10; fill: rgb(157,198,251); fill-rule: nonzero; opacity: 1;" transform=" matrix(1 0 0 1 0 0) " stroke-linecap="round" />
	<path d="M 37.774 81.786 c -0.447 0 -0.84 -0.297 -0.962 -0.727 c -0.561 -1.973 -1.983 -4.206 -3.904 -6.126 c -1.92 -1.921 -4.153 -3.344 -6.126 -3.904 c -0.43 -0.122 -0.727 -0.515 -0.727 -0.962 s 0.296 -0.84 0.727 -0.962 c 1.974 -0.562 4.207 -1.984 6.126 -3.904 c 1.92 -1.92 3.343 -4.152 3.904 -6.125 c 0.122 -0.43 0.515 -0.727 0.962 -0.727 s 0.84 0.297 0.962 0.727 c 0.561 1.972 1.984 4.205 3.904 6.126 c 1.92 1.92 4.153 3.343 6.126 3.903 c 0.43 0.122 0.727 0.515 0.727 0.962 s -0.297 0.84 -0.727 0.962 c -1.973 0.561 -4.206 1.983 -6.126 3.904 c -1.92 1.92 -3.343 4.153 -3.904 6.126 C 38.614 81.489 38.221 81.786 37.774 81.786 z M 29.708 70.067 c 1.58 0.822 3.163 2.001 4.614 3.452 s 2.63 3.034 3.452 4.614 c 0.822 -1.58 2 -3.163 3.452 -4.614 s 3.034 -2.63 4.614 -3.452 c -1.581 -0.821 -3.163 -2 -4.614 -3.451 c -1.451 -1.452 -2.63 -3.035 -3.452 -4.614 c -0.822 1.579 -2 3.162 -3.452 4.613 C 32.872 68.066 31.29 69.246 29.708 70.067 z" style="stroke: none; stroke-width: 1; stroke-dasharray: none; stroke-linecap: butt; stroke-linejoin: miter; stroke-miterlimit: 10; fill: rgb(0,0,0); fill-rule: nonzero; opacity: 1;" transform=" matrix(1 0 0 1 0 0) " stroke-linecap="round" />
	<path d="M 12.431 63.567 c 1.065 -1.065 2.253 -1.787 3.28 -2.079 c -1.027 -0.292 -2.214 -1.014 -3.28 -2.079 c -1.065 -1.065 -1.787 -2.253 -2.079 -3.28 c -0.292 1.027 -1.014 2.214 -2.079 3.28 c -1.065 1.065 -2.253 1.787 -3.28 2.079 c 1.027 0.292 2.214 1.014 3.28 2.079 c 1.065 1.065 1.787 2.253 2.079 3.28 C 10.644 65.819 11.366 64.632 12.431 63.567 z" style="stroke: none; stroke-width: 1; stroke-dasharray: none; stroke-linecap: butt; stroke-linejoin: miter; stroke-miterlimit: 10; fill: rgb(157,198,251); fill-rule: nonzero; opacity: 1;" transform=" matrix(1 0 0 1 0 0) " stroke-linecap="round" />
	<path d="M 10.352 67.847 c -0.447 0 -0.84 -0.297 -0.962 -0.727 c -0.258 -0.907 -0.923 -1.944 -1.825 -2.847 c -0.901 -0.901 -1.939 -1.566 -2.846 -1.824 c -0.43 -0.122 -0.727 -0.515 -0.727 -0.962 s 0.296 -0.84 0.727 -0.962 c 0.907 -0.258 1.944 -0.923 2.846 -1.824 c 0.902 -0.902 1.567 -1.939 1.825 -2.847 c 0.122 -0.43 0.515 -0.727 0.962 -0.727 s 0.84 0.297 0.962 0.727 c 0.258 0.907 0.923 1.944 1.825 2.847 c 0.901 0.901 1.939 1.566 2.846 1.824 c 0.43 0.122 0.727 0.515 0.727 0.962 s -0.297 0.84 -0.727 0.962 c -0.907 0.258 -1.945 0.923 -2.846 1.824 c -0.902 0.902 -1.567 1.939 -1.825 2.847 C 11.191 67.55 10.798 67.847 10.352 67.847 z M 7.304 61.487 c 0.578 0.379 1.145 0.841 1.675 1.372 c 0.531 0.531 0.994 1.098 1.373 1.676 c 0.379 -0.578 0.841 -1.145 1.373 -1.676 c 0.531 -0.531 1.097 -0.993 1.675 -1.372 c -0.578 -0.379 -1.145 -0.841 -1.675 -1.372 c -0.531 -0.531 -0.994 -1.098 -1.373 -1.676 c -0.379 0.578 -0.841 1.145 -1.373 1.676 C 8.448 60.646 7.882 61.108 7.304 61.487 z" style="stroke: none; stroke-width: 1; stroke-dasharray: none; stroke-linecap: butt; stroke-linejoin: miter; stroke-miterlimit: 10; fill: rgb(0,0,0); fill-rule: nonzero; opacity: 1;" transform=" matrix(1 0 0 1 0 0) " stroke-linecap="round" />
	<path d="M 56.283 56.946 c 1.321 -1.321 2.792 -2.215 4.065 -2.577 c -1.273 -0.362 -2.745 -1.257 -4.065 -2.577 c -1.321 -1.321 -2.215 -2.792 -2.577 -4.065 c -0.362 1.273 -1.257 2.745 -2.577 4.065 s -2.792 2.215 -4.065 2.577 c 1.273 0.362 2.745 1.257 4.065 2.577 c 1.321 1.321 2.215 2.792 2.577 4.065 C 54.068 59.738 54.963 58.267 56.283 56.946 z" style="stroke: none; stroke-width: 1; stroke-dasharray: none; stroke-linecap: butt; stroke-linejoin: miter; stroke-miterlimit: 10; fill: rgb(157,198,251); fill-rule: nonzero; opacity: 1;" transform=" matrix(1 0 0 1 0 0) " stroke-linecap="round" />
	<path d="M 53.706 62.012 c -0.447 0 -0.84 -0.297 -0.962 -0.727 c -0.331 -1.163 -1.178 -2.486 -2.322 -3.632 c -1.147 -1.146 -2.471 -1.993 -3.632 -2.322 c -0.43 -0.122 -0.727 -0.515 -0.727 -0.962 c 0 -0.446 0.297 -0.84 0.727 -0.962 c 1.162 -0.331 2.486 -1.178 3.632 -2.323 c 1.145 -1.145 1.991 -2.469 2.322 -3.631 c 0.122 -0.43 0.515 -0.727 0.962 -0.727 s 0.84 0.297 0.962 0.727 c 0.331 1.162 1.178 2.486 2.322 3.631 c 1.145 1.146 2.469 1.992 3.632 2.323 c 0.43 0.122 0.727 0.516 0.727 0.962 c 0 0.447 -0.297 0.84 -0.727 0.962 c -1.162 0.33 -2.485 1.176 -3.632 2.322 c -1.145 1.146 -1.991 2.469 -2.322 3.632 C 54.546 61.715 54.153 62.012 53.706 62.012 z M 49.479 54.369 c 0.812 0.493 1.611 1.126 2.356 1.87 c 0.744 0.743 1.376 1.544 1.87 2.355 c 0.493 -0.812 1.126 -1.611 1.87 -2.355 s 1.544 -1.377 2.355 -1.87 c -0.813 -0.494 -1.612 -1.127 -2.355 -1.871 c -0.744 -0.744 -1.377 -1.544 -1.87 -2.355 c -0.494 0.812 -1.126 1.612 -1.87 2.355 C 51.092 53.242 50.292 53.875 49.479 54.369 z" style="stroke: none; stroke-width: 1; stroke-dasharray: none; stroke-linecap: butt; stroke-linejoin: miter; stroke-miterlimit: 10; fill: rgb(0,0,0); fill-rule: nonzero; opacity: 1;" transform=" matrix(1 0 0 1 0 0) " stroke-linecap="round" />
	<path d="M 81.99 77.38 c 1.065 -1.065 2.253 -1.787 3.28 -2.079 c -1.027 -0.292 -2.214 -1.014 -3.28 -2.079 c -1.065 -1.065 -1.787 -2.253 -2.079 -3.28 c -0.292 1.027 -1.014 2.214 -2.079 3.28 s -2.253 1.787 -3.28 2.079 c 1.027 0.292 2.214 1.014 3.28 2.079 c 1.065 1.065 1.787 2.253 2.079 3.28 C 80.203 79.633 80.924 78.446 81.99 77.38 z" style="stroke: none; stroke-width: 1; stroke-dasharray: none; stroke-linecap: butt; stroke-linejoin: miter; stroke-miterlimit: 10; fill: rgb(157,198,251); fill-rule: nonzero; opacity: 1;" transform=" matrix(1 0 0 1 0 0) " stroke-linecap="round" />
	<path d="M 79.91 81.66 c -0.447 0 -0.84 -0.297 -0.962 -0.727 c -0.258 -0.907 -0.923 -1.945 -1.824 -2.847 s -1.938 -1.566 -2.846 -1.824 c -0.43 -0.122 -0.727 -0.515 -0.727 -0.962 s 0.297 -0.84 0.727 -0.962 c 0.907 -0.258 1.944 -0.923 2.846 -1.824 s 1.566 -1.939 1.824 -2.847 c 0.122 -0.43 0.515 -0.727 0.962 -0.727 s 0.84 0.297 0.962 0.727 c 0.258 0.907 0.923 1.944 1.825 2.847 c 0.901 0.901 1.938 1.566 2.846 1.824 c 0.43 0.122 0.727 0.515 0.727 0.962 s -0.297 0.84 -0.727 0.962 c -0.907 0.258 -1.944 0.923 -2.846 1.824 c -0.902 0.902 -1.567 1.939 -1.825 2.847 C 80.75 81.363 80.357 81.66 79.91 81.66 z M 76.862 75.301 c 0.578 0.379 1.145 0.841 1.676 1.372 s 0.993 1.098 1.372 1.676 c 0.379 -0.578 0.842 -1.145 1.373 -1.676 s 1.098 -0.993 1.675 -1.372 c -0.577 -0.379 -1.144 -0.841 -1.675 -1.372 s -0.994 -1.098 -1.373 -1.676 c -0.379 0.578 -0.841 1.145 -1.372 1.676 S 77.44 74.922 76.862 75.301 z" style="stroke: none; stroke-width: 1; stroke-dasharray: none; stroke-linecap: butt; stroke-linejoin: miter; stroke-miterlimit: 10; fill: rgb(0,0,0); fill-rule: nonzero; opacity: 1;" transform=" matrix(1 0 0 1 0 0) " stroke-linecap="round" />
</g>
</svg>