<svg xmlns="http://www.w3.org/2000/svg" xmlns:xlink="http://www.w3.org/1999/xlink" version="1.1" width="256" height="256" viewBox="0 0 256 256" xml:space="preserve">

<defs>
</defs>
<g style="stroke: none; stroke-width: 0; stroke-dasharray: none; stroke-linecap: butt; stroke-linejoin: miter; stroke-miterlimit: 10; fill: none; fill-rule: nonzero; opacity: 1;" transform="translate(1.4065934065934016 1.4065934065934016) scale(2.81 2.81)" >
	<path d="M 56.893 25.871 H 33.107 c -3.967 0 -7.891 0.826 -11.521 2.426 l -9.791 5.155 l 3.381 11.33 l 11.916 -2.387 v 35.094 h 35.818 V 42.395 l 11.916 2.387 l 3.381 -11.33 l -9.791 -5.155 C 64.784 26.697 60.86 25.871 56.893 25.871 z" style="stroke: none; stroke-width: 1; stroke-dasharray: none; stroke-linecap: butt; stroke-linejoin: miter; stroke-miterlimit: 10; fill: rgb(255,224,125); fill-rule: nonzero; opacity: 1;" transform=" matrix(1 0 0 1 0 0) " stroke-linecap="round" />
	<path d="M 50.274 33.773 l 5.89 -7.902 H 33.836 l 5.89 7.902 C 42.356 37.302 47.644 37.302 50.274 33.773 z" style="stroke: none; stroke-width: 1; stroke-dasharray: none; stroke-linecap: butt; stroke-linejoin: miter; stroke-miterlimit: 10; fill: rgb(234,212,117); fill-rule: nonzero; opacity: 1;" transform=" matrix(1 0 0 1 0 0) " stroke-linecap="round" />
	<path d="M 62.909 78.489 H 27.091 c -0.552 0 -1 -0.447 -1 -1 V 43.615 l -10.72 2.147 c -0.507 0.099 -1.006 -0.2 -1.155 -0.694 l -3.38 -11.33 c -0.136 -0.458 0.07 -0.948 0.493 -1.171 l 9.791 -5.155 c 3.844 -1.696 7.855 -2.541 11.987 -2.541 h 23.786 c 4.132 0 8.144 0.845 11.924 2.511 l 9.853 5.186 c 0.423 0.223 0.629 0.713 0.492 1.171 l -3.381 11.33 c -0.147 0.495 -0.649 0.794 -1.154 0.694 l -10.719 -2.147 v 33.874 C 63.909 78.042 63.462 78.489 62.909 78.489 z M 28.091 76.489 h 33.818 V 42.395 c 0 -0.3 0.135 -0.583 0.366 -0.773 c 0.232 -0.19 0.536 -0.267 0.83 -0.207 l 11.021 2.208 l 2.885 -9.668 l -9.063 -4.772 c -3.462 -1.523 -7.202 -2.311 -11.055 -2.311 H 33.107 c -3.852 0 -7.592 0.788 -11.118 2.341 l -9.001 4.742 l 2.885 9.668 l 11.022 -2.208 c 0.292 -0.06 0.598 0.017 0.83 0.207 c 0.232 0.19 0.366 0.474 0.366 0.773 V 76.489 z" style="stroke: none; stroke-width: 1; stroke-dasharray: none; stroke-linecap: butt; stroke-linejoin: miter; stroke-miterlimit: 10; fill: rgb(0,0,0); fill-rule: nonzero; opacity: 1;" transform=" matrix(1 0 0 1 0 0) " stroke-linecap="round" />
	<path d="M 45 37.42 C 45 37.42 45 37.42 45 37.42 c -2.417 0 -4.631 -1.111 -6.076 -3.049 l -5.89 -7.902 c -0.226 -0.303 -0.262 -0.708 -0.092 -1.046 c 0.169 -0.338 0.515 -0.551 0.894 -0.551 h 22.328 c 0.378 0 0.724 0.213 0.894 0.551 c 0.17 0.338 0.134 0.743 -0.092 1.046 l -5.89 7.902 l 0 0 C 49.632 36.309 47.417 37.42 45 37.42 z M 35.829 26.871 l 4.699 6.305 c 1.063 1.426 2.693 2.245 4.472 2.245 s 3.409 -0.818 4.473 -2.245 l 4.699 -6.305 H 35.829 z M 50.274 33.773 h 0.01 H 50.274 z" style="stroke: none; stroke-width: 1; stroke-dasharray: none; stroke-linecap: butt; stroke-linejoin: miter; stroke-miterlimit: 10; fill: rgb(0,0,0); fill-rule: nonzero; opacity: 1;" transform=" matrix(1 0 0 1 0 0) " stroke-linecap="round" />
	<path d="M 45 20.697 c -14.805 0 -29.61 -2.412 -44.312 -7.236 c -0.524 -0.172 -0.811 -0.737 -0.638 -1.262 c 0.172 -0.524 0.733 -0.81 1.262 -0.638 c 28.989 9.513 58.386 9.513 87.376 0 c 0.524 -0.171 1.089 0.114 1.262 0.638 c 0.172 0.525 -0.113 1.09 -0.639 1.262 C 74.61 18.285 59.806 20.697 45 20.697 z" style="stroke: none; stroke-width: 1; stroke-dasharray: none; stroke-linecap: butt; stroke-linejoin: miter; stroke-miterlimit: 10; fill: rgb(0,0,0); fill-rule: nonzero; opacity: 1;" transform=" matrix(1 0 0 1 0 0) " stroke-linecap="round" />
	<path d="M 62.111 28.707 L 62.111 28.707 c -1.478 0 -2.676 -1.198 -2.676 -2.676 v -8.213 c 0 -1.478 1.198 -2.676 2.676 -2.676 h 0 c 1.478 0 2.676 1.198 2.676 2.676 v 8.213 C 64.787 27.509 63.589 28.707 62.111 28.707 z" style="stroke: none; stroke-width: 1; stroke-dasharray: none; stroke-linecap: butt; stroke-linejoin: miter; stroke-miterlimit: 10; fill: rgb(184,175,194); fill-rule: nonzero; opacity: 1;" transform=" matrix(1 0 0 1 0 0) " stroke-linecap="round" />
	<path d="M 62.111 29.707 c -2.026 0 -3.676 -1.649 -3.676 -3.676 v -8.213 c 0 -2.026 1.649 -3.675 3.676 -3.675 s 3.676 1.649 3.676 3.675 v 8.213 C 65.787 28.058 64.138 29.707 62.111 29.707 z M 62.111 16.143 c -0.924 0 -1.676 0.751 -1.676 1.675 v 8.213 c 0 0.924 0.752 1.676 1.676 1.676 c 0.924 0 1.676 -0.752 1.676 -1.676 v -8.213 C 63.787 16.894 63.035 16.143 62.111 16.143 z" style="stroke: none; stroke-width: 1; stroke-dasharray: none; stroke-linecap: butt; stroke-linejoin: miter; stroke-miterlimit: 10; fill: rgb(0,0,0); fill-rule: nonzero; opacity: 1;" transform=" matrix(1 0 0 1 0 0) " stroke-linecap="round" />
	<path d="M 27.889 28.707 L 27.889 28.707 c -1.478 0 -2.676 -1.198 -2.676 -2.676 v -8.213 c 0 -1.478 1.198 -2.676 2.676 -2.676 h 0 c 1.478 0 2.676 1.198 2.676 2.676 v 8.213 C 30.565 27.509 29.367 28.707 27.889 28.707 z" style="stroke: none; stroke-width: 1; stroke-dasharray: none; stroke-linecap: butt; stroke-linejoin: miter; stroke-miterlimit: 10; fill: rgb(184,175,194); fill-rule: nonzero; opacity: 1;" transform=" matrix(1 0 0 1 0 0) " stroke-linecap="round" />
	<path d="M 27.889 29.707 c -2.026 0 -3.675 -1.649 -3.675 -3.676 v -8.213 c 0 -2.026 1.649 -3.675 3.675 -3.675 c 2.027 0 3.676 1.649 3.676 3.675 v 8.213 C 31.565 28.058 29.916 29.707 27.889 29.707 z M 27.889 16.143 c -0.924 0 -1.675 0.751 -1.675 1.675 v 8.213 c 0 0.924 0.751 1.676 1.675 1.676 s 1.676 -0.752 1.676 -1.676 v -8.213 C 29.565 16.894 28.813 16.143 27.889 16.143 z" style="stroke: none; stroke-width: 1; stroke-dasharray: none; stroke-linecap: butt; stroke-linejoin: miter; stroke-miterlimit: 10; fill: rgb(0,0,0); fill-rule: nonzero; opacity: 1;" transform=" matrix(1 0 0 1 0 0) " stroke-linecap="round" />
</g>
</svg>