<svg xmlns="http://www.w3.org/2000/svg" xmlns:xlink="http://www.w3.org/1999/xlink" version="1.1" width="256" height="256" viewBox="0 0 256 256" xml:space="preserve">

<defs>
</defs>
<g style="stroke: none; stroke-width: 0; stroke-dasharray: none; stroke-linecap: butt; stroke-linejoin: miter; stroke-miterlimit: 10; fill: none; fill-rule: nonzero; opacity: 1;" transform="translate(1.4065934065934016 1.4065934065934016) scale(2.81 2.81)" >
	<path d="M 7.464 59.641 C 16.32 32.7 31.419 29.559 71.056 29.404 c 1.925 -0.008 3.498 1.551 3.498 3.476 l 0 15.351 c 0 1.974 -0.872 3.909 -2.501 5.025 c -1.862 1.274 -3.185 3.479 -4.102 6.386 H 7.464 z" style="stroke: none; stroke-width: 1; stroke-dasharray: none; stroke-linecap: butt; stroke-linejoin: miter; stroke-miterlimit: 10; fill: rgb(157,198,251); fill-rule: nonzero; opacity: 1;" transform=" matrix(1 0 0 1 0 0) " stroke-linecap="round" />
	<path d="M 74.834 68.129 H 1 v -4.244 c 0 -2.344 1.9 -4.244 4.244 -4.244 H 70.59 c 2.344 0 4.244 1.9 4.244 4.244 V 68.129 z" style="stroke: none; stroke-width: 1; stroke-dasharray: none; stroke-linecap: butt; stroke-linejoin: miter; stroke-miterlimit: 10; fill: rgb(226,216,236); fill-rule: nonzero; opacity: 1;" transform=" matrix(1 0 0 1 0 0) " stroke-linecap="round" />
	<path d="M 64.014 37.879 H 49.247 c -1.566 0 -3.041 0.737 -3.981 1.99 l -4.802 6.403 c -0.751 1.001 -0.037 2.43 1.215 2.43 h 22.335 c 1.43 0 2.589 -1.159 2.589 -2.589 v -5.646 C 66.603 39.038 65.444 37.879 64.014 37.879 z" style="stroke: none; stroke-width: 1; stroke-dasharray: none; stroke-linecap: butt; stroke-linejoin: miter; stroke-miterlimit: 10; fill: rgb(255,255,255); fill-rule: nonzero; opacity: 1;" transform=" matrix(1 0 0 1 0 0) " stroke-linecap="round" />
	<path d="M 67.951 60.641 H 7.464 c -0.321 0 -0.622 -0.154 -0.81 -0.414 s -0.24 -0.594 -0.14 -0.898 c 9.183 -27.934 25.852 -30.773 64.538 -30.924 c 1.166 -0.029 2.333 0.46 3.185 1.309 c 0.85 0.846 1.317 1.971 1.317 3.167 V 48.23 c 0 2.404 -1.098 4.591 -2.937 5.85 c -1.577 1.08 -2.826 3.052 -3.712 5.861 C 68.773 60.357 68.388 60.641 67.951 60.641 z M 8.857 58.641 H 67.23 c 1.021 -2.916 2.418 -4.952 4.257 -6.211 c 1.294 -0.886 2.066 -2.455 2.066 -4.199 V 32.879 c 0 -0.66 -0.259 -1.281 -0.729 -1.75 c -0.471 -0.468 -1.094 -0.726 -1.756 -0.726 c -0.003 0 -0.007 0 -0.01 0 C 33.23 30.552 17.743 33.054 8.857 58.641 z" style="stroke: none; stroke-width: 1; stroke-dasharray: none; stroke-linecap: butt; stroke-linejoin: miter; stroke-miterlimit: 10; fill: rgb(0,0,0); fill-rule: nonzero; opacity: 1;" transform=" matrix(1 0 0 1 0 0) " stroke-linecap="round" />
	<path d="M 74.834 69.13 H 1 c -0.552 0 -1 -0.447 -1 -1 v -4.244 c 0 -2.893 2.353 -5.245 5.244 -5.245 H 70.59 c 2.892 0 5.244 2.353 5.244 5.245 v 4.244 C 75.834 68.683 75.387 69.13 74.834 69.13 z M 2 67.13 h 71.834 v -3.244 c 0 -1.789 -1.455 -3.245 -3.244 -3.245 H 5.244 C 3.455 60.641 2 62.097 2 63.886 V 67.13 z" style="stroke: none; stroke-width: 1; stroke-dasharray: none; stroke-linecap: butt; stroke-linejoin: miter; stroke-miterlimit: 10; fill: rgb(0,0,0); fill-rule: nonzero; opacity: 1;" transform=" matrix(1 0 0 1 0 0) " stroke-linecap="round" />
	<path d="M 67.603 29.427 l -2.128 -5.103 c -0.619 -1.486 -2.071 -2.453 -3.681 -2.453 h -8.001 c -1.658 0 -3.143 1.026 -3.73 2.576 l -2.176 5.748 C 53.64 29.7 60.168 29.495 67.603 29.427 z" style="stroke: none; stroke-width: 1; stroke-dasharray: none; stroke-linecap: butt; stroke-linejoin: miter; stroke-miterlimit: 10; fill: rgb(255,224,125); fill-rule: nonzero; opacity: 1;" transform=" matrix(1 0 0 1 0 0) " stroke-linecap="round" />
	<path d="M 64.014 49.703 H 41.679 c -0.96 0 -1.824 -0.533 -2.253 -1.393 c -0.429 -0.858 -0.338 -1.869 0.238 -2.637 l 4.802 -6.403 c 1.123 -1.497 2.91 -2.391 4.781 -2.391 h 14.767 c 1.979 0 3.589 1.61 3.589 3.589 v 5.646 C 67.603 48.093 65.992 49.703 64.014 49.703 z M 49.247 38.879 c -1.245 0 -2.434 0.595 -3.181 1.591 l -4.803 6.403 c -0.173 0.231 -0.092 0.457 -0.049 0.543 c 0.043 0.087 0.174 0.287 0.464 0.287 h 22.335 c 0.876 0 1.589 -0.713 1.589 -1.589 v -5.646 c 0 -0.876 -0.713 -1.589 -1.589 -1.589 H 49.247 z" style="stroke: none; stroke-width: 1; stroke-dasharray: none; stroke-linecap: butt; stroke-linejoin: miter; stroke-miterlimit: 10; fill: rgb(0,0,0); fill-rule: nonzero; opacity: 1;" transform=" matrix(1 0 0 1 0 0) " stroke-linecap="round" />
	<path d="M 47.888 31.194 c -0.312 0 -0.607 -0.146 -0.798 -0.397 c -0.207 -0.274 -0.259 -0.636 -0.138 -0.957 l 2.176 -5.748 c 0.729 -1.927 2.604 -3.222 4.666 -3.222 h 8 c 2.02 0 3.827 1.205 4.604 3.068 l 2.128 5.103 c 0.128 0.307 0.095 0.658 -0.088 0.936 c -0.184 0.278 -0.493 0.446 -0.826 0.449 c -8.208 0.075 -14.448 0.318 -19.638 0.764 C 47.944 31.193 47.916 31.194 47.888 31.194 z M 53.794 22.871 c -1.235 0 -2.358 0.776 -2.795 1.93 l -1.617 4.27 c 4.588 -0.345 9.98 -0.547 16.727 -0.628 l -1.557 -3.734 c -0.466 -1.117 -1.548 -1.838 -2.758 -1.838 H 53.794 z" style="stroke: none; stroke-width: 1; stroke-dasharray: none; stroke-linecap: butt; stroke-linejoin: miter; stroke-miterlimit: 10; fill: rgb(0,0,0); fill-rule: nonzero; opacity: 1;" transform=" matrix(1 0 0 1 0 0) " stroke-linecap="round" />
	<path d="M 89 64.886 c -4.534 0 -8.223 -3.689 -8.223 -8.224 v -12.75 c 0 -3.432 -2.792 -6.223 -6.224 -6.223 c -0.553 0 -1 -0.448 -1 -1 s 0.447 -1 1 -1 c 4.534 0 8.224 3.689 8.224 8.223 v 12.75 c 0 3.432 2.791 6.224 6.223 6.224 c 0.553 0 1 0.447 1 1 S 89.553 64.886 89 64.886 z" style="stroke: none; stroke-width: 1; stroke-dasharray: none; stroke-linecap: butt; stroke-linejoin: miter; stroke-miterlimit: 10; fill: rgb(0,0,0); fill-rule: nonzero; opacity: 1;" transform=" matrix(1 0 0 1 0 0) " stroke-linecap="round" />
</g>
</svg>