<svg xmlns="http://www.w3.org/2000/svg" xmlns:xlink="http://www.w3.org/1999/xlink" version="1.1" width="256" height="256" viewBox="0 0 256 256" xml:space="preserve">

<defs>
</defs>
<g style="stroke: none; stroke-width: 0; stroke-dasharray: none; stroke-linecap: butt; stroke-linejoin: miter; stroke-miterlimit: 10; fill: none; fill-rule: nonzero; opacity: 1;" transform="translate(1.4065934065934016 1.4065934065934016) scale(2.81 2.81)" >
	<path d="M 7.464 41.502 C 16.32 14.561 31.419 11.42 71.056 11.265 c 1.925 -0.008 3.498 1.551 3.498 3.476 l 0 15.351 c 0 1.974 -0.872 3.909 -2.501 5.025 c -1.862 1.274 -3.185 3.479 -4.102 6.386 L 7.464 41.502 z" style="stroke: none; stroke-width: 1; stroke-dasharray: none; stroke-linecap: butt; stroke-linejoin: miter; stroke-miterlimit: 10; fill: rgb(157,198,251); fill-rule: nonzero; opacity: 1;" transform=" matrix(1 0 0 1 0 0) " stroke-linecap="round" />
	<path d="M 70.59 49.991 H 5.244 C 2.9 49.991 1 48.09 1 45.746 v 0 c 0 -2.344 1.9 -4.244 4.244 -4.244 H 70.59 c 2.344 0 4.244 1.9 4.244 4.244 v 0 C 74.834 48.09 72.934 49.991 70.59 49.991 z" style="stroke: none; stroke-width: 1; stroke-dasharray: none; stroke-linecap: butt; stroke-linejoin: miter; stroke-miterlimit: 10; fill: rgb(226,216,236); fill-rule: nonzero; opacity: 1;" transform=" matrix(1 0 0 1 0 0) " stroke-linecap="round" />
	<path d="M 64.014 19.741 H 49.247 c -1.566 0 -3.041 0.737 -3.981 1.99 l -4.802 6.403 c -0.751 1.001 -0.037 2.43 1.215 2.43 h 22.335 c 1.43 0 2.589 -1.159 2.589 -2.589 v -5.646 C 66.603 20.9 65.444 19.741 64.014 19.741 z" style="stroke: none; stroke-width: 1; stroke-dasharray: none; stroke-linecap: butt; stroke-linejoin: miter; stroke-miterlimit: 10; fill: rgb(255,255,255); fill-rule: nonzero; opacity: 1;" transform=" matrix(1 0 0 1 0 0) " stroke-linecap="round" />
	<path d="M 67.951 42.502 H 7.464 c -0.321 0 -0.622 -0.154 -0.81 -0.414 s -0.24 -0.594 -0.14 -0.899 c 9.183 -27.934 25.852 -30.773 64.538 -30.925 c 0.006 0 0.013 0 0.019 0 c 1.194 0 2.318 0.464 3.166 1.309 c 0.85 0.846 1.317 1.971 1.317 3.167 v 15.351 c 0 2.404 -1.098 4.591 -2.936 5.85 c -1.578 1.08 -2.827 3.052 -3.713 5.861 C 68.773 42.219 68.388 42.502 67.951 42.502 z M 8.857 40.502 h 58.372 c 1.021 -2.916 2.419 -4.951 4.258 -6.211 c 1.294 -0.886 2.066 -2.456 2.066 -4.2 V 14.741 c 0 -0.661 -0.259 -1.282 -0.729 -1.75 c -0.474 -0.471 -1.105 -0.713 -1.766 -0.726 C 33.23 12.413 17.743 14.916 8.857 40.502 z" style="stroke: none; stroke-width: 1; stroke-dasharray: none; stroke-linecap: butt; stroke-linejoin: miter; stroke-miterlimit: 10; fill: rgb(0,0,0); fill-rule: nonzero; opacity: 1;" transform=" matrix(1 0 0 1 0 0) " stroke-linecap="round" />
	<path d="M 70.59 50.99 H 5.244 C 2.353 50.99 0 48.638 0 45.747 c 0 -2.892 2.353 -5.244 5.244 -5.244 H 70.59 c 2.892 0 5.244 2.353 5.244 5.244 C 75.834 48.638 73.481 50.99 70.59 50.99 z M 5.244 42.502 C 3.455 42.502 2 43.958 2 45.747 c 0 1.789 1.455 3.244 3.244 3.244 H 70.59 c 1.789 0 3.244 -1.455 3.244 -3.244 c 0 -1.789 -1.455 -3.244 -3.244 -3.244 H 5.244 z" style="stroke: none; stroke-width: 1; stroke-dasharray: none; stroke-linecap: butt; stroke-linejoin: miter; stroke-miterlimit: 10; fill: rgb(0,0,0); fill-rule: nonzero; opacity: 1;" transform=" matrix(1 0 0 1 0 0) " stroke-linecap="round" />
	<path d="M 67.603 11.288 l -2.128 -5.103 c -0.619 -1.486 -2.071 -2.453 -3.681 -2.453 h -8.001 c -1.658 0 -3.143 1.026 -3.73 2.576 l -2.176 5.748 C 53.64 11.561 60.168 11.356 67.603 11.288 z" style="stroke: none; stroke-width: 1; stroke-dasharray: none; stroke-linecap: butt; stroke-linejoin: miter; stroke-miterlimit: 10; fill: rgb(255,224,125); fill-rule: nonzero; opacity: 1;" transform=" matrix(1 0 0 1 0 0) " stroke-linecap="round" />
	<path d="M 64.014 31.564 H 41.679 c -0.96 0 -1.823 -0.534 -2.253 -1.392 c -0.429 -0.859 -0.338 -1.87 0.238 -2.638 l 4.802 -6.403 c 1.123 -1.497 2.91 -2.39 4.781 -2.39 h 14.767 c 1.979 0 3.589 1.61 3.589 3.589 v 5.646 C 67.603 29.955 65.992 31.564 64.014 31.564 z M 49.247 20.741 c -1.245 0 -2.434 0.595 -3.181 1.59 l -4.803 6.403 c -0.173 0.231 -0.092 0.457 -0.049 0.543 c 0.043 0.086 0.175 0.287 0.464 0.287 h 22.335 c 0.876 0 1.589 -0.713 1.589 -1.589 V 22.33 c 0 -0.876 -0.713 -1.589 -1.589 -1.589 H 49.247 z" style="stroke: none; stroke-width: 1; stroke-dasharray: none; stroke-linecap: butt; stroke-linejoin: miter; stroke-miterlimit: 10; fill: rgb(0,0,0); fill-rule: nonzero; opacity: 1;" transform=" matrix(1 0 0 1 0 0) " stroke-linecap="round" />
	<path d="M 47.888 13.056 c -0.312 0 -0.607 -0.146 -0.798 -0.397 c -0.207 -0.274 -0.259 -0.636 -0.138 -0.957 l 2.176 -5.748 c 0.729 -1.927 2.604 -3.222 4.666 -3.222 h 8 c 2.02 0 3.827 1.205 4.604 3.068 l 2.128 5.103 c 0.128 0.307 0.095 0.658 -0.088 0.936 c -0.184 0.278 -0.493 0.446 -0.826 0.449 c -8.208 0.075 -14.448 0.318 -19.638 0.764 C 47.944 13.055 47.916 13.056 47.888 13.056 z M 53.794 4.732 c -1.235 0 -2.358 0.776 -2.795 1.93 l -1.617 4.27 c 4.588 -0.345 9.98 -0.547 16.727 -0.628 L 64.552 6.57 c -0.466 -1.117 -1.548 -1.838 -2.758 -1.838 H 53.794 z" style="stroke: none; stroke-width: 1; stroke-dasharray: none; stroke-linecap: butt; stroke-linejoin: miter; stroke-miterlimit: 10; fill: rgb(0,0,0); fill-rule: nonzero; opacity: 1;" transform=" matrix(1 0 0 1 0 0) " stroke-linecap="round" />
	<path d="M 89 46.746 c -4.534 0 -8.223 -3.688 -8.223 -8.223 v -12.75 c 0 -3.431 -2.792 -6.223 -6.224 -6.223 c -0.553 0 -1 -0.448 -1 -1 s 0.447 -1 1 -1 c 4.534 0 8.224 3.688 8.224 8.223 v 12.75 c 0 3.432 2.791 6.223 6.223 6.223 c 0.553 0 1 0.448 1 1 S 89.553 46.746 89 46.746 z" style="stroke: none; stroke-width: 1; stroke-dasharray: none; stroke-linecap: butt; stroke-linejoin: miter; stroke-miterlimit: 10; fill: rgb(0,0,0); fill-rule: nonzero; opacity: 1;" transform=" matrix(1 0 0 1 0 0) " stroke-linecap="round" />
	<path d="M 21.464 80.642 c -3.87 0 -7.018 -3.147 -7.018 -7.017 c 0 -0.553 0.448 -1 1 -1 s 1 0.447 1 1 c 0 2.767 2.251 5.017 5.018 5.017 s 5.018 -2.25 5.018 -5.017 V 55.302 c 0 -0.553 0.448 -1 1 -1 s 1 0.447 1 1 v 18.323 C 28.481 77.494 25.333 80.642 21.464 80.642 z" style="stroke: none; stroke-width: 1; stroke-dasharray: none; stroke-linecap: butt; stroke-linejoin: miter; stroke-miterlimit: 10; fill: rgb(0,0,0); fill-rule: nonzero; opacity: 1;" transform=" matrix(1 0 0 1 0 0) " stroke-linecap="round" />
	<path d="M 52.307 87.269 c -3.869 0 -7.018 -3.148 -7.018 -7.018 V 55.302 c 0 -0.553 0.448 -1 1 -1 c 0.553 0 1 0.447 1 1 v 24.949 c 0 2.767 2.251 5.018 5.018 5.018 s 5.018 -2.251 5.018 -5.018 c 0 -0.553 0.447 -1 1 -1 s 1 0.447 1 1 C 59.324 84.12 56.176 87.269 52.307 87.269 z" style="stroke: none; stroke-width: 1; stroke-dasharray: none; stroke-linecap: butt; stroke-linejoin: miter; stroke-miterlimit: 10; fill: rgb(0,0,0); fill-rule: nonzero; opacity: 1;" transform=" matrix(1 0 0 1 0 0) " stroke-linecap="round" />
	<path d="M 36.657 84.943 c -0.552 0 -1 -0.447 -1 -1 V 55.302 c 0 -0.553 0.448 -1 1 -1 s 1 0.447 1 1 v 28.642 C 37.657 84.496 37.209 84.943 36.657 84.943 z" style="stroke: none; stroke-width: 1; stroke-dasharray: none; stroke-linecap: butt; stroke-linejoin: miter; stroke-miterlimit: 10; fill: rgb(0,0,0); fill-rule: nonzero; opacity: 1;" transform=" matrix(1 0 0 1 0 0) " stroke-linecap="round" />
	<path d="M 60.315 74.154 c -2.464 0 -4.469 -2.005 -4.469 -4.469 V 55.302 c 0 -0.553 0.447 -1 1 -1 s 1 0.447 1 1 v 14.384 c 0 1.361 1.107 2.469 2.469 2.469 c 1.362 0 2.47 -1.107 2.47 -2.469 v -3.83 c 0 -0.553 0.447 -1 1 -1 s 1 0.447 1 1 v 3.83 C 64.785 72.149 62.78 74.154 60.315 74.154 z" style="stroke: none; stroke-width: 1; stroke-dasharray: none; stroke-linecap: butt; stroke-linejoin: miter; stroke-miterlimit: 10; fill: rgb(0,0,0); fill-rule: nonzero; opacity: 1;" transform=" matrix(1 0 0 1 0 0) " stroke-linecap="round" />
	<path d="M 13.916 70.154 c -2.464 0 -4.469 -2.005 -4.469 -4.469 v -3.83 c 0 -0.553 0.448 -1 1 -1 s 1 0.447 1 1 v 3.83 c 0 1.361 1.108 2.469 2.469 2.469 s 2.469 -1.107 2.469 -2.469 V 55.302 c 0 -0.553 0.448 -1 1 -1 s 1 0.447 1 1 v 10.384 C 18.385 68.149 16.38 70.154 13.916 70.154 z" style="stroke: none; stroke-width: 1; stroke-dasharray: none; stroke-linecap: butt; stroke-linejoin: miter; stroke-miterlimit: 10; fill: rgb(0,0,0); fill-rule: nonzero; opacity: 1;" transform=" matrix(1 0 0 1 0 0) " stroke-linecap="round" />
</g>
</svg>