<svg xmlns="http://www.w3.org/2000/svg" xmlns:xlink="http://www.w3.org/1999/xlink" version="1.1" width="256" height="256" viewBox="0 0 256 256" xml:space="preserve">

<defs>
</defs>
<g style="stroke: none; stroke-width: 0; stroke-dasharray: none; stroke-linecap: butt; stroke-linejoin: miter; stroke-miterlimit: 10; fill: none; fill-rule: nonzero; opacity: 1;" transform="translate(1.4065934065934016 1.4065934065934016) scale(2.81 2.81)" >
	<path d="M 69.648 89 H 11.024 c -1.957 0 -3.544 -1.587 -3.544 -3.544 v -72.09 c 0 -1.957 1.587 -3.544 3.544 -3.544 h 58.624 c 1.957 0 3.544 1.587 3.544 3.544 v 72.09 C 73.191 87.413 71.605 89 69.648 89 z" style="stroke: none; stroke-width: 1; stroke-dasharray: none; stroke-linecap: butt; stroke-linejoin: miter; stroke-miterlimit: 10; fill: rgb(226,216,236); fill-rule: nonzero; opacity: 1;" transform=" matrix(1 0 0 1 0 0) " stroke-linecap="round" />
	<path d="M 7.48 26.796 h 65.712 v -13.43 c 0 -1.957 -1.587 -3.544 -3.544 -3.544 H 11.024 c -1.957 0 -3.544 1.587 -3.544 3.544 V 26.796 z" style="stroke: none; stroke-width: 1; stroke-dasharray: none; stroke-linecap: butt; stroke-linejoin: miter; stroke-miterlimit: 10; fill: rgb(184,175,194); fill-rule: nonzero; opacity: 1;" transform=" matrix(1 0 0 1 0 0) " stroke-linecap="round" />
	<path d="M 11.024 89 h 58.624 c 1.957 0 3.544 -1.587 3.544 -3.544 v -5.531 H 7.48 v 5.531 C 7.48 87.413 9.067 89 11.024 89 z" style="stroke: none; stroke-width: 1; stroke-dasharray: none; stroke-linecap: butt; stroke-linejoin: miter; stroke-miterlimit: 10; fill: rgb(184,175,194); fill-rule: nonzero; opacity: 1;" transform=" matrix(1 0 0 1 0 0) " stroke-linecap="round" />
	<circle cx="40.34" cy="53.36" r="18.81" style="stroke: none; stroke-width: 1; stroke-dasharray: none; stroke-linecap: butt; stroke-linejoin: miter; stroke-miterlimit: 10; fill: rgb(184,175,194); fill-rule: nonzero; opacity: 1;" transform="  matrix(1 0 0 1 0 0) "/>
	<circle cx="40.336" cy="53.356" r="12.836" style="stroke: none; stroke-width: 1; stroke-dasharray: none; stroke-linecap: butt; stroke-linejoin: miter; stroke-miterlimit: 10; fill: rgb(255,255,255); fill-rule: nonzero; opacity: 1;" transform="  matrix(1 0 0 1 0 0) "/>
	<path d="M 27.726 51.001 c -0.142 0.766 -0.226 1.552 -0.226 2.359 c 0 7.089 5.747 12.836 12.836 12.836 c 6.417 0 11.719 -4.715 12.669 -10.866 C 40.336 61.095 39.348 47.272 27.726 51.001 z" style="stroke: none; stroke-width: 1; stroke-dasharray: none; stroke-linecap: butt; stroke-linejoin: miter; stroke-miterlimit: 10; fill: rgb(157,198,251); fill-rule: nonzero; opacity: 1;" transform=" matrix(1 0 0 1 0 0) " stroke-linecap="round" />
	<path d="M 28.588 21.642 H 16.299 c -1.841 0 -3.333 -1.492 -3.333 -3.333 v 0 c 0 -1.841 1.492 -3.333 3.333 -3.333 h 12.289 c 1.841 0 3.333 1.492 3.333 3.333 v 0 C 31.92 20.15 30.428 21.642 28.588 21.642 z" style="stroke: none; stroke-width: 1; stroke-dasharray: none; stroke-linecap: butt; stroke-linejoin: miter; stroke-miterlimit: 10; fill: rgb(157,198,251); fill-rule: nonzero; opacity: 1;" transform=" matrix(1 0 0 1 0 0) " stroke-linecap="round" />
	<path d="M 69.647 90 H 11.024 c -2.505 0 -4.544 -2.038 -4.544 -4.544 v -72.09 c 0 -2.505 2.039 -4.544 4.544 -4.544 h 58.624 c 2.506 0 4.544 2.039 4.544 4.544 v 72.09 C 74.191 87.962 72.153 90 69.647 90 z M 11.024 10.822 c -1.403 0 -2.544 1.141 -2.544 2.544 v 72.09 C 8.48 86.858 9.621 88 11.024 88 h 58.624 c 1.402 0 2.544 -1.142 2.544 -2.544 v -72.09 c 0 -1.403 -1.142 -2.544 -2.544 -2.544 H 11.024 z" style="stroke: none; stroke-width: 1; stroke-dasharray: none; stroke-linecap: butt; stroke-linejoin: miter; stroke-miterlimit: 10; fill: rgb(0,0,0); fill-rule: nonzero; opacity: 1;" transform=" matrix(1 0 0 1 0 0) " stroke-linecap="round" />
	<path d="M 73.191 27.796 H 7.48 c -0.552 0 -1 -0.448 -1 -1 v -13.43 c 0 -2.505 2.039 -4.544 4.544 -4.544 h 58.624 c 2.506 0 4.544 2.039 4.544 4.544 v 13.43 C 74.191 27.349 73.744 27.796 73.191 27.796 z M 8.48 25.796 h 63.711 v -12.43 c 0 -1.403 -1.142 -2.544 -2.544 -2.544 H 11.024 c -1.403 0 -2.544 1.141 -2.544 2.544 V 25.796 z" style="stroke: none; stroke-width: 1; stroke-dasharray: none; stroke-linecap: butt; stroke-linejoin: miter; stroke-miterlimit: 10; fill: rgb(0,0,0); fill-rule: nonzero; opacity: 1;" transform=" matrix(1 0 0 1 0 0) " stroke-linecap="round" />
	<path d="M 69.647 90 H 11.024 c -2.505 0 -4.544 -2.038 -4.544 -4.544 v -5.531 c 0 -0.553 0.448 -1 1 -1 h 65.711 c 0.553 0 1 0.447 1 1 v 5.531 C 74.191 87.962 72.153 90 69.647 90 z M 8.48 80.925 v 4.531 C 8.48 86.858 9.621 88 11.024 88 h 58.624 c 1.402 0 2.544 -1.142 2.544 -2.544 v -4.531 H 8.48 z" style="stroke: none; stroke-width: 1; stroke-dasharray: none; stroke-linecap: butt; stroke-linejoin: miter; stroke-miterlimit: 10; fill: rgb(0,0,0); fill-rule: nonzero; opacity: 1;" transform=" matrix(1 0 0 1 0 0) " stroke-linecap="round" />
	<path d="M 40.335 73.17 c -10.923 0 -19.81 -8.887 -19.81 -19.81 s 8.887 -19.81 19.81 -19.81 c 10.923 0 19.81 8.887 19.81 19.81 S 51.259 73.17 40.335 73.17 z M 40.335 35.551 c -9.82 0 -17.81 7.989 -17.81 17.81 s 7.989 17.81 17.81 17.81 c 9.821 0 17.81 -7.989 17.81 -17.81 S 50.156 35.551 40.335 35.551 z" style="stroke: none; stroke-width: 1; stroke-dasharray: none; stroke-linecap: butt; stroke-linejoin: miter; stroke-miterlimit: 10; fill: rgb(0,0,0); fill-rule: nonzero; opacity: 1;" transform=" matrix(1 0 0 1 0 0) " stroke-linecap="round" />
	<path d="M 40.335 67.196 c -7.629 0 -13.835 -6.207 -13.835 -13.836 s 6.207 -13.835 13.835 -13.835 c 7.628 0 13.835 6.207 13.835 13.835 S 47.964 67.196 40.335 67.196 z M 40.335 41.525 c -6.526 0 -11.835 5.309 -11.835 11.835 s 5.31 11.836 11.835 11.836 s 11.835 -5.31 11.835 -11.836 S 46.861 41.525 40.335 41.525 z" style="stroke: none; stroke-width: 1; stroke-dasharray: none; stroke-linecap: butt; stroke-linejoin: miter; stroke-miterlimit: 10; fill: rgb(0,0,0); fill-rule: nonzero; opacity: 1;" transform=" matrix(1 0 0 1 0 0) " stroke-linecap="round" />
	<path d="M 40.335 67.196 c -7.629 0 -13.835 -6.207 -13.835 -13.836 c 0 -0.821 0.082 -1.677 0.243 -2.542 c 0.067 -0.362 0.327 -0.657 0.677 -0.77 c 5.979 -1.917 9.5 0.536 12.608 2.701 c 3.441 2.396 6.412 4.468 12.563 1.67 c 0.333 -0.151 0.725 -0.108 1.019 0.113 c 0.292 0.222 0.439 0.587 0.384 0.949 C 52.944 62.271 47.201 67.196 40.335 67.196 z M 28.612 51.78 c -0.075 0.539 -0.112 1.068 -0.112 1.58 c 0 6.526 5.31 11.836 11.835 11.836 c 5.249 0 9.732 -3.367 11.264 -8.229 c -6.051 2.068 -9.572 -0.388 -12.715 -2.577 C 36.01 52.388 33.29 50.492 28.612 51.78 z" style="stroke: none; stroke-width: 1; stroke-dasharray: none; stroke-linecap: butt; stroke-linejoin: miter; stroke-miterlimit: 10; fill: rgb(0,0,0); fill-rule: nonzero; opacity: 1;" transform=" matrix(1 0 0 1 0 0) " stroke-linecap="round" />
	<path d="M 28.587 22.642 H 16.299 c -2.389 0 -4.333 -1.944 -4.333 -4.333 s 1.944 -4.333 4.333 -4.333 h 12.289 c 2.389 0 4.333 1.943 4.333 4.333 S 30.977 22.642 28.587 22.642 z M 16.299 15.977 c -1.287 0 -2.333 1.046 -2.333 2.333 c 0 1.287 1.046 2.333 2.333 2.333 h 12.289 c 1.286 0 2.333 -1.046 2.333 -2.333 c 0 -1.286 -1.046 -2.333 -2.333 -2.333 H 16.299 z" style="stroke: none; stroke-width: 1; stroke-dasharray: none; stroke-linecap: butt; stroke-linejoin: miter; stroke-miterlimit: 10; fill: rgb(0,0,0); fill-rule: nonzero; opacity: 1;" transform=" matrix(1 0 0 1 0 0) " stroke-linecap="round" />
	<circle cx="64.791" cy="18.731" r="17.731" style="stroke: none; stroke-width: 1; stroke-dasharray: none; stroke-linecap: butt; stroke-linejoin: miter; stroke-miterlimit: 10; fill: rgb(255,224,125); fill-rule: nonzero; opacity: 1;" transform="  matrix(1 0 0 1 0 0) "/>
	<path d="M 64.789 37.461 c -10.328 0 -18.73 -8.402 -18.73 -18.73 S 54.461 0 64.789 0 s 18.731 8.403 18.731 18.731 S 75.117 37.461 64.789 37.461 z M 64.789 2 c -9.226 0 -16.73 7.505 -16.73 16.731 c 0 9.225 7.505 16.73 16.73 16.73 s 16.731 -7.505 16.731 -16.73 C 81.521 9.505 74.015 2 64.789 2 z" style="stroke: none; stroke-width: 1; stroke-dasharray: none; stroke-linecap: butt; stroke-linejoin: miter; stroke-miterlimit: 10; fill: rgb(0,0,0); fill-rule: nonzero; opacity: 1;" transform=" matrix(1 0 0 1 0 0) " stroke-linecap="round" />
	<path d="M 73.386 27.4 c -0.237 0 -0.475 -0.083 -0.666 -0.254 l -8.597 -7.669 c -0.212 -0.189 -0.334 -0.461 -0.334 -0.746 V 9.408 c 0 -0.552 0.447 -1 1 -1 s 1 0.448 1 1 v 8.875 l 8.263 7.371 c 0.412 0.368 0.448 1 0.08 1.412 C 73.935 27.288 73.66 27.4 73.386 27.4 z" style="stroke: none; stroke-width: 1; stroke-dasharray: none; stroke-linecap: butt; stroke-linejoin: miter; stroke-miterlimit: 10; fill: rgb(0,0,0); fill-rule: nonzero; opacity: 1;" transform=" matrix(1 0 0 1 0 0) " stroke-linecap="round" />
</g>
</svg>